<svg viewBox="0 0 32 32" xml:space="preserve" xmlns="http://www.w3.org/2000/svg"><path fill="none" d="M0 0h32v32H0z"></path><path d="M31.999 15.999c0-5.519-4.478-9.997-9.998-9.999a9.94 9.94 0 0 0-6.002 2.015A9.946 9.946 0 0 0 10.001 6C4.473 6 0 10.48 0 16c0 5.521 4.473 9.998 10.001 10a9.95 9.95 0 0 0 5.998-2.015A9.954 9.954 0 0 0 22 26c5.521-.002 9.998-4.478 10-10.001h-.001zM2.001 16a8.009 8.009 0 0 1 8-8c1.67.003 3.22.519 4.502 1.396A9.954 9.954 0 0 0 12 15.999c0 2.535.95 4.842 2.504 6.605A7.966 7.966 0 0 1 10.002 24a8.009 8.009 0 0 1-8.001-8zm27.998-.001A8.014 8.014 0 0 1 22 24a7.995 7.995 0 0 1-4.507-1.396 9.948 9.948 0 0 0 0-13.208A7.977 7.977 0 0 1 22 8a8.016 8.016 0 0 1 8 7.999h-.001z" fill="#ffffff" class="fill-000000"></path></svg>