<?xml version="1.0" ?><svg enable-background="new 0 0 32 32" height="32px" id="svg2" version="1.1" viewBox="0 0 32 32" width="32px" xml:space="preserve" xmlns="http://www.w3.org/2000/svg" xmlns:cc="http://creativecommons.org/ns#" xmlns:dc="http://purl.org/dc/elements/1.1/" xmlns:inkscape="http://www.inkscape.org/namespaces/inkscape" xmlns:rdf="http://www.w3.org/1999/02/22-rdf-syntax-ns#" xmlns:sodipodi="http://sodipodi.sourceforge.net/DTD/sodipodi-0.dtd" xmlns:svg="http://www.w3.org/2000/svg"><g id="background"><rect fill="none" height="32" width="32" x="0"/></g><g id="combine"><g><path d="M31.999,15.999c0-5.519-4.478-9.997-9.998-9.999C19.745,6,17.67,6.756,15.999,8.015C14.326,6.756,12.254,6.001,10.001,6    C4.473,6,0,10.48,0,16c0,5.521,4.473,9.998,10.001,10c2.253-0.002,4.326-0.756,5.998-2.015C17.671,25.244,19.745,25.998,22,26    c5.521-0.002,9.998-4.478,10-10.001H31.999z M2.001,16c0.008-4.417,3.577-7.991,8-8c1.67,0.003,3.22,0.519,4.502,1.396    C12.95,11.159,12,13.465,12,15.999c0,2.535,0.95,4.842,2.504,6.605c-1.282,0.877-2.832,1.394-4.502,1.396    C5.578,23.991,2.009,20.417,2.001,16z M29.999,15.999C29.991,20.417,26.415,23.99,22,24c-1.674-0.004-3.225-0.52-4.507-1.396    C19.048,20.842,20,18.534,20,16c-0.001-2.535-0.952-4.842-2.507-6.604C18.776,8.519,20.327,8.002,22,8    c4.414,0.008,7.99,3.585,8,7.999H29.999z"/></g></g></svg>